<?xml version="1.0" encoding="iso-8859-1"?>
<!-- Generator: Adobe Illustrator 16.0.0, SVG Export Plug-In . SVG Version: 6.00 Build 0)  -->
<!DOCTYPE svg PUBLIC "-//W3C//DTD SVG 1.1//EN" "http://www.w3.org/Graphics/SVG/1.1/DTD/svg11.dtd">
<svg fill="#fff"  version="1.1" id="Capa_1" xmlns="http://www.w3.org/2000/svg" xmlns:xlink="http://www.w3.org/1999/xlink" x="0px" y="0px"
	 width="46.007px" height="46.006px" viewBox="0 0 46.007 46.006" style="enable-background:new 0 0 46.007 46.006;"
	 xml:space="preserve">
<g>
	<g>
		<path d="M23.004,5.167c-9.836,0-17.837,8.001-17.837,17.837c0,9.835,8.001,17.836,17.837,17.836
			c9.835,0,17.836-8.001,17.836-17.836C40.84,13.167,32.839,5.167,23.004,5.167z M32,33.003h-6v-8h-6v8h-6v-21h6v8h6v-8h6V33.003z"
			/>
		<path d="M23.003,0C10.299,0,0,10.298,0,23.003c0,12.704,10.299,23.003,23.003,23.003s23.004-10.3,23.004-23.003
			C46.007,10.298,35.708,0,23.003,0z M23.004,43.089c-11.076,0-20.087-9.01-20.087-20.086s9.01-20.086,20.086-20.086
			c11.077,0,20.087,9.01,20.087,20.086S34.08,43.089,23.004,43.089z"/>
	</g>
</g>
<g>
</g>
<g>
</g>
<g>
</g>
<g>
</g>
<g>
</g>
<g>
</g>
<g>
</g>
<g>
</g>
<g>
</g>
<g>
</g>
<g>
</g>
<g>
</g>
<g>
</g>
<g>
</g>
<g>
</g>
</svg>
